<?xml version="1.0" encoding="UTF-8" standalone="no"?>
<svg
   xmlns:dc="http://purl.org/dc/elements/1.1/"
   xmlns:cc="http://creativecommons.org/ns#"
   xmlns:rdf="http://www.w3.org/1999/02/22-rdf-syntax-ns#"
   xmlns:svg="http://www.w3.org/2000/svg"
   xmlns="http://www.w3.org/2000/svg"
   viewBox="0 0 484 277.33334"
   height="277.33334"
   width="484"
   xml:space="preserve"
   id="svg2"
   version="1.1"><metadata
     id="metadata8"><rdf:RDF><cc:Work
         rdf:about=""><dc:format>image/svg+xml</dc:format><dc:type
           rdf:resource="http://purl.org/dc/dcmitype/StillImage" /></cc:Work></rdf:RDF></metadata><defs
     id="defs6" /><g
     transform="matrix(1.3333333,0,0,-1.3333333,0,277.33333)"
     id="g10"><g
       transform="scale(0.1)"
       id="g12"><path
         id="path14"
         style="fill:#2394cf;fill-opacity:1;fill-rule:evenodd;stroke:none"
         d="m 1754.41,1969.53 c 6.33,6.33 13.32,12.66 21.02,18.99 l -92.03,91.48 -96.99,-96.99 90.5,-90.98 77.5,77.5" /><path
         id="path16"
         style="fill:#2394cf;fill-opacity:1;fill-rule:evenodd;stroke:none"
         d="m 1859.92,815.512 c -5.66,-5.672 -11.99,-11.492 -19.02,-17.5 l 84.53,-83.992 96.99,97 -83.51,83.511 -78.99,-79.019" /><path
         id="path18"
         style="fill:#2394cf;fill-opacity:1;fill-rule:evenodd;stroke:none"
         d="m 2394.92,1350.51 -114.49,-114.49 c -3.01,-21.68 -12.03,-40.16 -27.03,-55.51 -9.34,-8.99 -19.65,-15.82 -30.98,-20.51 -8.67,-3.63 -17.65,-5.82 -26.99,-6.48 -5,-0.67 -10.35,-0.82 -16.02,-0.51 -3,0.35 -5.5,0.51 -7.5,0.51 -0.66,0.35 -1.48,0.5 -2.5,0.5 -1.68,0.32 -3.51,0.67 -5.5,0.98 l -3.01,1.02 c -1.64,0.35 -3.32,0.82 -5,1.48 -1.33,0.35 -2.66,0.86 -3.99,1.52 l -11.99,5.51 c -1.33,0.67 -2.65,1.33 -4.02,1.99 l -1.49,0.98 -2.5,1.52 c -1.32,0.98 -2.85,2.15 -4.49,3.48 l -2.5,2.03 c -2.34,1.99 -4.69,3.99 -6.99,5.98 l -179.02,179.02 -97,-97.03 178.99,-178.98 c 5.35,-5.36 11.01,-10.51 17.03,-15.51 0.98,-0.98 2.15,-1.84 3.48,-2.5 l 8.51,-6.49 c 1.99,-1.68 3.99,-3 5.98,-4.02 2.03,-1.33 4.02,-2.66 6.01,-3.98 l 5.51,-3.01 c 2.35,-1.64 4.85,-3.17 7.5,-4.49 2.35,-1.33 4.85,-2.66 7.5,-3.99 l 5.51,-2.5 c 1.99,-1.01 4.14,-2.03 6.48,-3.01 3.32,-1.32 6.49,-2.5 9.5,-3.51 l 5,-1.99 c 1.68,-0.67 3.51,-1.33 5.5,-2 4.34,-1.32 8.68,-2.5 13.01,-3.51 l 2.5,-0.51 c 1.64,-0.66 3.48,-1.13 5.51,-1.48 4.65,-1.02 9.34,-1.84 13.98,-2.5 l 2.5,-0.51 c 1.33,0 2.66,-0.16 3.99,-0.51 5.35,-0.66 10.51,-1.13 15.51,-1.48 h 5.5 c 5.67,-0.36 11.33,-0.36 17,0 h 4.02 c 5.98,0.35 11.84,1.01 17.5,1.99 h 3.48 c 6.01,1.01 11.99,2.19 18,3.51 l 2.5,0.51 c 6.33,1.64 12.5,3.48 18.52,5.47 7.66,2.34 14.49,4.84 20.47,7.5 7.03,3.36 13.51,6.68 19.53,10 6.64,3.36 12.97,7.19 18.98,11.52 0.36,0 0.67,0.16 1.02,0.51 5.98,4.34 11.48,8.48 16.48,12.5 l 2.5,2.5 c 3.01,2.31 5.82,4.65 8.52,6.99 l 2.5,2 c 0.66,1.01 1.48,1.83 2.5,2.5 35,36.32 56.48,78.51 64.49,126.48 8.01,48.01 1.33,94.84 -20,140.51" /><path
         id="path20"
         style="fill:#283882;fill-opacity:1;fill-rule:evenodd;stroke:none"
         d="m 1439.41,1586.52 -308,-308 96.99,-97 313.51,313.48 -78.51,79.02 c -6.64,6.33 -14.65,10.51 -23.99,12.5" /><path
         id="path22"
         style="fill:#283882;fill-opacity:1;fill-rule:evenodd;stroke:none"
         d="m 1706.41,1659.53 179.02,178.48 c 19.65,18.67 42.15,28.01 67.5,28.01 25.31,0.35 47.81,-8.99 67.5,-28.01 15.31,-15.31 24.49,-33.67 27.5,-55 l 114.49,-114.49 c 21.33,45.35 28.01,92.14 20,140.5 -8.01,48.01 -29.49,90.16 -64.49,126.49 -48.01,45.35 -103.01,68.01 -165,68.01 -62.03,0 -117.03,-22.66 -165,-68.01 l -179.53,-180 c 6.68,-5.67 13.01,-11.49 19.02,-17.5 l 78.99,-78.48" /><path
         id="path24"
         style="fill:#283882;fill-opacity:1;fill-rule:evenodd;stroke:none"
         d="M 1909.92,1127.03 1729.41,946.52 c -18.98,-18.36 -41.68,-27.649 -68,-28 -25.98,0.351 -48.48,9.64 -67.5,28 -15.98,16.332 -25.16,35.98 -27.5,58.99 l -113.01,113.01 c -21.99,-45.67 -29.14,-92.86 -21.49,-141.489 7.66,-48.359 29.34,-90.859 65,-127.5 45.67,-44.691 100.51,-67.34 164.5,-68.011 64.33,0.671 119.33,23.32 165,68.011 l 181.52,181.489 c -7.34,6.01 -14.34,12.34 -21.02,18.98 l -76.99,77.03" /><path
         id="path26"
         style="fill:#283882;fill-opacity:1;fill-rule:evenodd;stroke:none"
         d="m 2178.4,1201.02 314.02,314.49 -96.99,96.99 -321.02,-320.98 77,-76.99 c 7.65,-7.34 16.68,-11.83 26.99,-13.51" /><path
         id="path28"
         style="fill:#2394cf;fill-opacity:1;fill-rule:evenodd;stroke:none"
         d="m 1460.9,1629.53 c 1.68,-0.35 3.16,-0.86 4.53,-1.52 0.98,-0.31 1.84,-0.67 2.5,-0.98 l 2.5,-1.01 c 0.98,-0.67 2.15,-1.33 3.48,-2 1.01,-0.35 1.99,-0.86 3,-1.52 l 2,-1.48 c 1.01,-0.36 1.99,-0.82 3,-1.49 1.33,-1.01 2.66,-2.03 3.99,-3.01 l 1.52,-1.01 1.99,-1.49 c 2.66,-2.34 5.16,-4.49 7.5,-6.52 l 180,-180.47 97.5,96.99 -180.5,180.51 c -5.67,5.67 -11.49,10.98 -17.5,15.98 -1.33,1.01 -2.66,1.99 -3.99,3.01 l -6.52,4.49 c -2.66,1.99 -5.47,4.02 -8.48,6.01 -1.99,1.33 -4.18,2.66 -6.52,3.99 l -12.97,8.01 c -3.36,1.32 -6.52,2.65 -9.53,3.98 l -6.49,3.01 c -1.32,1.01 -2.85,1.83 -4.49,2.5 -4.33,1.68 -8.67,3.16 -13.01,4.49 l -4.49,1.52 c -1.33,0.32 -2.65,0.82 -4.02,1.49 -5.31,1.33 -10.82,2.65 -16.49,4.02 l -5,0.98 c -6.01,1.33 -12.14,2.34 -18.51,3.01 -0.67,0 -1.33,0 -1.99,0 -8.01,1.01 -15.16,1.48 -21.49,1.48 h -1.99 c -7.34,0 -14.53,-0.31 -21.52,-0.98 -55.32,-5.35 -102.66,-26.99 -142,-65 -0.66,-0.35 -1.17,-0.66 -1.48,-1.01 -0.66,-0.67 -1.37,-1.33 -2.03,-1.99 -35,-36.68 -56.33,-79.18 -63.99,-127.5 -7.65,-48.32 -0.5,-95.16 21.49,-140.51 l 113.01,113.01 c 2.34,22.34 11.17,41.68 26.52,58 l 2.5,2 c 8.63,8.32 17.81,14.49 27.5,18.51 7.3,3.32 14.65,5.67 21.99,6.99 3.01,0.32 5.98,0.67 8.99,0.98 3.67,0.35 6.68,0.35 9.02,0 3.63,0 6.64,-0.16 8.98,-0.47 0.67,0 1.33,0 2,0 1.99,-0.35 4.33,-0.66 6.99,-1.01 0.35,-0.36 0.86,-0.51 1.52,-0.51 3.01,-0.67 5.31,-1.33 6.99,-1.99 l 2.5,-0.51 1.49,-0.98" /><path
         id="path30"
         style="fill:#2394cf;fill-opacity:1;fill-rule:evenodd;stroke:none"
         d="m 1774.41,1059.53 -97.5,96.99 c -2.65,3.68 -2.65,7.15 0,10.51 l 358.01,357.5 c 3.32,2.97 6.64,2.97 10,0 l 97.5,-97.03 96.99,97.03 -293.51,293.48 c -10.67,-1.64 -19.49,-5.98 -26.49,-13.01 l -77.5,-77.5 95.51,-95.47 c 3.01,-3.36 3.01,-6.83 0,-10.51 l -357.5,-357.5 c -3.36,-2.65 -6.83,-2.65 -10.51,0 l -95.5,95.51 -97,-97.03 295,-295 c 8.99,2.34 16.84,6.68 23.52,13.012 l 78.98,79.018" /><path
         id="path32"
         style="fill:#2695d0;fill-opacity:1;fill-rule:nonzero;stroke:none"
         d="M 185.859,189.57 H 70.5508 L 44.1406,100.512 H 0.078125 L 109.922,441.762 h 36.879 L 256.949,100.512 H 212.891 Z M 81.8008,226.602 h 93.1212 l -46.723,155.16 z M 480.699,215.199 c 0,-40.238 -7.258,-70.16 -21.719,-89.847 -14.371,-19.692 -34.8,-29.5317 -61.25,-29.5317 -25.429,0 -45,9.6097 -58.75,28.9097 V 3.01172 H 297.73 V 354.102 h 37.5 l 2.04,-28.122 c 13.941,21.872 33.902,32.809 59.839,32.809 27.813,0 48.59,-9.687 62.34,-29.059 13.75,-19.378 20.821,-48.359 21.25,-86.878 z m -41.25,23.59 c 0,28.441 -4.371,49.41 -13.121,62.973 -8.75,13.508 -22.808,20.308 -42.187,20.308 -19.801,0 -34.84,-9.961 -45.161,-29.84 V 160.352 c 10.079,-19.372 25.321,-29.063 45.629,-29.063 18.75,0 32.539,6.723 41.411,20.16 8.82,13.512 13.32,34.211 13.429,62.031 z" /><path
         id="path34"
         style="fill:#2695d0;fill-opacity:1;fill-rule:nonzero;stroke:none"
         d="m 625.391,95.8203 c -31.563,0 -55.782,9.4097 -72.661,28.2817 -16.871,18.828 -25.46,46.449 -25.781,82.808 v 30.789 c 0,37.813 8.211,67.422 24.692,88.903 16.449,21.449 39.449,32.187 69.058,32.187 29.692,0 51.879,-9.488 66.571,-28.437 14.679,-18.872 22.179,-48.282 22.5,-88.282 V 214.879 H 568.199 v -5.777 c 0,-27.192 5.082,-46.993 15.321,-59.372 10.191,-12.308 24.921,-18.441 44.21,-18.441 12.192,0 22.891,2.262 32.192,6.871 9.258,4.57 17.969,11.879 26.098,21.879 l 21.558,-26.25 C 689.648,108.48 662.27,95.8203 625.391,95.8203 Z M 620.699,323.16 c -17.179,0 -29.961,-5.89 -38.277,-17.648 -8.242,-11.801 -12.934,-30.121 -14.063,-55 h 99.84 v 5.617 c -1.051,24.07 -5.39,41.25 -12.969,51.57 -7.609,10.313 -19.14,15.461 -34.531,15.461 z" /><path
         id="path36"
         style="fill:#2695d0;fill-opacity:1;fill-rule:nonzero;stroke:none"
         d="m 833.051,261.602 43.277,92.5 h 48.121 L 855.551,228.789 926.02,100.512 h -47.5 l -44.848,95 -45,-95 h -47.813 l 70.621,128.277 -68.75,125.313 h 47.661 z" /><path
         id="path38"
         style="fill:#2695d0;fill-opacity:1;fill-rule:nonzero;stroke:none"
         d="m 1024.92,415.512 v -61.41 h 38.28 V 320.66 h -38.28 V 163.32 c 0,-10 1.6,-17.621 4.85,-22.808 3.32,-5.121 8.98,-7.66 17.03,-7.66 5.39,0 10.93,0.937 16.56,2.808 l -0.47,-35.148 c -9.37,-3.1331 -18.98,-4.6917 -28.75,-4.6917 -16.48,0 -29.02,5.8207 -37.66,17.4997 -8.55,11.758 -12.808,28.36 -12.808,49.84 v 157.5 h -38.594 v 33.442 h 38.594 v 61.41 z" /><path
         id="path40"
         style="fill:#2695d0;fill-opacity:1;fill-rule:nonzero;stroke:none"
         d="m 1202.89,95.8203 c -31.56,0 -55.78,9.4097 -72.66,28.2817 -16.87,18.828 -25.46,46.449 -25.78,82.808 v 30.789 c 0,37.813 8.21,67.422 24.69,88.903 16.45,21.449 39.45,32.187 69.06,32.187 29.69,0 51.88,-9.488 66.57,-28.437 14.68,-18.872 22.18,-48.282 22.5,-88.282 V 214.879 H 1145.7 v -5.777 c 0,-27.192 5.08,-46.993 15.32,-59.372 10.19,-12.308 24.92,-18.441 44.21,-18.441 12.19,0 22.89,2.262 32.19,6.871 9.26,4.57 17.97,11.879 26.1,21.879 l 21.56,-26.25 C 1267.15,108.48 1239.77,95.8203 1202.89,95.8203 Z M 1198.2,323.16 c -17.18,0 -29.96,-5.89 -38.28,-17.648 -8.24,-11.801 -12.93,-30.121 -14.06,-55 h 99.84 v 5.617 c -1.05,24.07 -5.39,41.25 -12.97,51.57 -7.61,10.313 -19.14,15.461 -34.53,15.461 z" /><path
         id="path42"
         style="fill:#2695d0;fill-opacity:1;fill-rule:nonzero;stroke:none"
         d="m 1425.23,131.289 c 13.75,0 24.73,4.223 32.97,12.66 8.32,8.512 12.89,20.699 13.75,36.563 h 39.07 c -0.94,-24.383 -9.61,-44.614 -25.94,-60.633 -16.25,-16.051 -36.21,-24.0587 -59.85,-24.0587 -31.36,0 -55.31,9.8787 -71.87,29.6917 -16.48,19.758 -24.69,49.218 -24.69,88.277 v 27.813 c 0,38.32 8.17,67.418 24.53,87.347 16.45,19.879 40.39,29.84 71.88,29.84 25.94,0 46.48,-8.238 61.72,-24.687 15.19,-16.372 23.28,-38.75 24.22,-67.192 h -39.07 c -0.93,18.75 -5.47,32.82 -13.59,42.192 -8.05,9.378 -19.14,14.058 -33.28,14.058 -18.44,0 -32.15,-6.051 -41.1,-18.121 -8.86,-12.109 -13.43,-31.988 -13.75,-59.687 v -32.34 c 0,-29.813 4.38,-50.903 13.13,-63.282 8.83,-12.308 22.81,-18.441 41.87,-18.441 z" /><path
         id="path44"
         style="fill:#2695d0;fill-opacity:1;fill-rule:nonzero;stroke:none"
         d="m 1600.86,328.16 c 15.7,20.391 35.86,30.629 60.47,30.629 44.76,0 67.5,-29.918 68.12,-89.687 V 100.512 H 1688.2 V 267.23 c 0,19.758 -3.36,33.821 -10,42.18 -6.56,8.442 -16.52,12.66 -29.84,12.66 -10.31,0 -19.61,-3.441 -27.81,-10.308 -8.13,-6.883 -14.69,-15.903 -19.69,-27.032 V 100.512 h -41.56 v 360 h 41.56 z" /><path
         id="path46"
         style="fill:#2695d0;fill-opacity:1;fill-rule:nonzero;stroke:none"
         d="m 2055.55,186.762 c 0,17.066 -4.65,30.148 -13.91,39.218 -9.18,9.059 -25.78,17.848 -49.84,26.399 -24.07,8.641 -42.5,17.66 -55.32,27.031 -12.73,9.461 -22.26,20.238 -28.59,32.352 -6.25,12.187 -9.37,26.09 -9.37,41.718 0,26.95 8.98,49.219 27.03,66.719 18,17.5 41.64,26.25 70.93,26.25 20,0 37.82,-4.5 53.44,-13.437 15.63,-8.992 27.66,-21.41 36.1,-37.352 8.43,-15.93 12.65,-33.43 12.65,-52.5 h -43.12 c 0,21.02 -5.12,37.352 -15.32,48.91 -10.11,11.559 -24.68,17.34 -43.75,17.34 -17.42,0 -30.89,-4.84 -40.46,-14.531 -9.5,-9.68 -14.22,-23.277 -14.22,-40.777 0,-14.372 5.15,-26.403 15.47,-36.09 10.31,-9.692 26.25,-18.364 47.81,-25.942 33.63,-11.172 57.65,-24.84 72.03,-41.09 14.45,-16.25 21.72,-37.5 21.72,-63.75 0,-27.621 -9.03,-49.769 -27.03,-66.41 -17.93,-16.679 -42.35,-24.9997 -73.28,-24.9997 -19.81,0 -38.13,4.3397 -55,12.9687 -16.8,8.75 -29.97,20.941 -39.54,36.563 -9.6,15.699 -14.37,33.75 -14.37,54.058 h 43.12 c 0,-21.051 5.86,-37.461 17.66,-49.211 11.76,-11.679 27.81,-17.5 48.13,-17.5 18.94,0 33.16,4.84 42.65,14.531 9.57,9.68 14.38,22.848 14.38,39.532 z" /><path
         id="path48"
         style="fill:#2695d0;fill-opacity:1;fill-rule:nonzero;stroke:none"
         d="m 2140.39,239.102 c 0,36.878 8.91,66.019 26.72,87.5 17.89,21.449 41.56,32.187 70.94,32.187 29.37,0 53,-10.469 70.93,-31.41 17.9,-20.93 27.07,-49.449 27.5,-85.469 v -26.711 c 0,-36.801 -8.9,-65.898 -26.71,-87.347 -17.82,-21.372 -41.57,-32.0317 -71.25,-32.0317 -29.38,0 -52.93,10.3517 -70.63,31.0897 -17.73,20.82 -26.87,48.988 -27.5,84.539 z m 41.41,-23.903 c 0,-26.179 5.08,-46.679 15.31,-61.57 10.31,-14.918 24.1,-22.34 41.41,-22.34 36.56,0 55.39,26.41 56.56,79.223 v 28.59 c 0,25.937 -5.16,46.41 -15.47,61.41 -10.31,15.078 -24.18,22.648 -41.56,22.648 -17,0 -30.63,-7.57 -40.94,-22.648 -10.23,-15 -15.31,-35.434 -15.31,-61.25 z" /><path
         id="path50"
         style="fill:#2695d0;fill-opacity:1;fill-rule:nonzero;stroke:none"
         d="m 2393.2,100.512 h 41.5625 v 360 H 2393.2 Z" /><path
         id="path52"
         style="fill:#2695d0;fill-opacity:1;fill-rule:nonzero;stroke:none"
         d="m 2628.98,122.852 c -13.75,-18.051 -33.82,-27.0317 -60.15,-27.0317 -23.05,0 -40.43,7.8907 -52.19,23.7497 -11.68,15.942 -17.58,39.059 -17.66,69.379 v 165.153 h 41.25 V 191.91 c 0,-39.488 11.88,-59.211 35.63,-59.211 25.08,0 42.42,11.25 52.03,33.75 v 187.653 h 41.41 v -253.59 h -39.38 z" /><path
         id="path54"
         style="fill:#2695d0;fill-opacity:1;fill-rule:nonzero;stroke:none"
         d="m 2786.48,415.512 v -61.41 h 38.29 V 320.66 h -38.29 V 163.32 c 0,-10 1.61,-17.621 4.85,-22.808 3.32,-5.121 8.98,-7.66 17.03,-7.66 5.39,0 10.94,0.937 16.56,2.808 l -0.47,-35.148 c -9.37,-3.1331 -18.98,-4.6917 -28.75,-4.6917 -16.48,0 -29.02,5.8207 -37.65,17.4997 -8.56,11.758 -12.82,28.36 -12.82,49.84 v 157.5 h -38.59 v 33.442 h 38.59 v 61.41 z" /><path
         id="path56"
         style="fill:#2695d0;fill-opacity:1;fill-rule:nonzero;stroke:none"
         d="m 2918.52,100.512 h -41.5703 v 253.59 h 41.5703 z m 3.28,320.937 c 0,-7.109 -2,-12.969 -5.94,-17.66 -3.87,-4.687 -9.81,-7.027 -17.81,-7.027 -7.82,0 -13.71,2.34 -17.66,7.027 -3.87,4.691 -5.78,10.512 -5.78,17.5 0,7.07 1.91,13.012 5.78,17.813 3.95,4.878 9.84,7.347 17.66,7.347 7.81,0 13.67,-2.469 17.65,-7.347 4.07,-4.922 6.1,-10.782 6.1,-17.653 z" /><path
         id="path58"
         style="fill:#2695d0;fill-opacity:1;fill-rule:nonzero;stroke:none"
         d="m 2974.77,239.102 c 0,36.878 8.9,66.019 26.71,87.5 17.9,21.449 41.57,32.187 70.94,32.187 29.38,0 53.01,-10.469 70.94,-31.41 17.89,-20.93 27.07,-49.449 27.5,-85.469 v -26.711 c 0,-36.801 -8.91,-65.898 -26.72,-87.347 -17.81,-21.372 -41.56,-32.0317 -71.25,-32.0317 -29.37,0 -52.93,10.3517 -70.62,31.0897 -17.74,20.82 -26.88,48.988 -27.5,84.539 z m 41.4,-23.903 c 0,-26.179 5.08,-46.679 15.31,-61.57 10.32,-14.918 24.11,-22.34 41.41,-22.34 36.56,0 55.39,26.41 56.56,79.223 v 28.59 c 0,25.937 -5.15,46.41 -15.47,61.41 -10.31,15.078 -24.18,22.648 -41.56,22.648 -16.99,0 -30.62,-7.57 -40.94,-22.648 -10.23,-15 -15.31,-35.434 -15.31,-61.25 z" /><path
         id="path60"
         style="fill:#2695d0;fill-opacity:1;fill-rule:nonzero;stroke:none"
         d="m 3263.52,354.102 1.09,-27.34 c 16.13,21.328 36.72,32.027 61.72,32.027 44.76,0 67.5,-29.918 68.12,-89.687 V 100.512 H 3353.2 V 267.23 c 0,19.758 -3.36,33.821 -10,42.18 -6.56,8.442 -16.52,12.66 -29.84,12.66 -10.31,0 -19.61,-3.441 -27.81,-10.308 -8.13,-6.883 -14.69,-15.903 -19.69,-27.032 V 100.512 h -41.56 v 253.59 z" /><path
         id="path62"
         style="fill:#2695d0;fill-opacity:1;fill-rule:nonzero;stroke:none"
         d="m 3580.08,165.512 c 0,8.828 -3.4,16.437 -10.16,22.808 -6.68,6.45 -19.61,13.981 -38.75,22.66 -22.42,9.141 -38.2,17.032 -47.34,23.59 -9.06,6.559 -15.9,13.981 -20.47,22.34 -4.49,8.442 -6.72,18.442 -6.72,30 0,20.629 7.5,37.738 22.5,51.41 15.08,13.629 34.38,20.469 57.81,20.469 24.69,0 44.53,-7.187 59.53,-21.559 15,-14.378 22.5,-32.82 22.5,-55.32 h -41.25 c 0,11.449 -3.86,21.18 -11.56,29.219 -7.62,8.012 -17.34,12.031 -29.22,12.031 -12.18,0 -21.79,-3.199 -28.75,-9.531 -6.87,-6.25 -10.31,-14.68 -10.31,-25.309 0,-8.441 2.5,-15.269 7.5,-20.468 5.08,-5.122 17.34,-11.872 36.72,-20.313 30.82,-12.109 51.76,-23.867 62.81,-35.309 11.13,-11.492 16.72,-26.058 16.72,-43.75 0,-22 -7.62,-39.609 -22.81,-52.82 -15.12,-13.238 -35.43,-19.8397 -60.94,-19.8397 -26.37,0 -47.77,7.5387 -64.22,22.6597 -16.37,15.192 -24.53,34.45 -24.53,57.809 h 41.72 c 0.39,-14.059 4.69,-25.117 12.81,-33.129 8.13,-7.93 19.53,-11.871 34.22,-11.871 13.75,0 24.22,3.051 31.41,9.223 7.18,6.129 10.78,14.449 10.78,25 z" /></g></g></svg>